<?xml version="1.0" encoding="utf-8"?>
<!-- Svg Vector Icons : http://www.onlinewebfonts.com/icon -->
<!DOCTYPE svg PUBLIC "-//W3C//DTD SVG 1.1//EN" "http://www.w3.org/Graphics/SVG/1.1/DTD/svg11.dtd">
<svg version="1.1" xmlns="http://www.w3.org/2000/svg" xmlns:xlink="http://www.w3.org/1999/xlink" x="0px" y="0px" viewBox="0 0 1000 1000" enable-background="new 0 0 1000 1000" xml:space="preserve">
<metadata> Svg Vector Icons : http://www.onlinewebfonts.com/icon </metadata>
<g><path d="M309.6,428.4H133.1C65.2,428.4,10,373.2,10,305.3V126.9C10,59,65.2,3.8,133.1,3.8h176.5c67.9,0,123.1,55.2,123.1,123.1v178.4C432.7,373.2,377.5,428.4,309.6,428.4z M133.1,63.4c-35,0-63.5,28.5-63.5,63.5v178.4c0,35,28.5,63.5,63.5,63.5h176.5c35,0,63.5-28.5,63.5-63.5V126.9c0-35-28.5-63.5-63.5-63.5L133.1,63.4z"/><path d="M309.6,914.9H133.1C65.2,914.9,10,859.6,10,791.7V613.3c0-67.9,55.2-123.1,123.1-123.1h176.5c67.9,0,123.1,55.2,123.1,123.1v178.4C432.7,859.6,377.5,914.9,309.6,914.9z M133.1,549.8c-35,0-63.5,28.5-63.5,63.5v178.4c0,35,28.5,63.5,63.5,63.5h176.5c35,0,63.5-28.5,63.5-63.5V613.3c0-35-28.5-63.5-63.5-63.5H133.1z"/><path d="M790.8,428.4H614.3c-67.9,0-123.1-55.2-123.1-123.1V126.9C491.2,59,546.4,3.8,614.3,3.8h176.5c67.9,0,123.1,55.2,123.1,123.1v178.4C913.9,373.2,858.7,428.4,790.8,428.4z M614.3,63.4c-35,0-63.5,28.5-63.5,63.5v178.4c0,35,28.5,63.5,63.5,63.5h176.5c35,0,63.5-28.5,63.5-63.5V126.9c0-35-28.5-63.5-63.5-63.5L614.3,63.4z"/><path d="M716,914.9c-117.1,0-212.3-95.3-212.3-212.3S598.9,490.2,716,490.2c117.1,0,212.3,95.3,212.3,212.3S833.1,914.9,716,914.9z M716,549.8c-84.2,0-152.7,68.5-152.7,152.7c0,84.2,68.5,152.7,152.7,152.7s152.7-68.5,152.7-152.7C868.7,618.3,800.2,549.8,716,549.8z"/><path d="M960.2,996.2c-7.6,0-15.3-2.9-21.1-8.7L813.7,862.1c-11.6-11.6-11.6-30.5,0-42.2c11.6-11.6,30.5-11.6,42.2,0l125.4,125.4c11.6,11.6,11.6,30.5,0,42.2C975.4,993.3,967.8,996.2,960.2,996.2z"/></g>
</svg>